<?xml version="1.0" encoding="UTF-8"?>
<!DOCTYPE svg PUBLIC "-//W3C//DTD SVG 1.1//EN" "http://www.w3.org/Graphics/SVG/1.1/DTD/svg11.dtd">
<!-- Creator: CorelDRAW -->
<svg xmlns="http://www.w3.org/2000/svg" xml:space="preserve" width="176.641mm" height="75.8221mm" version="1.1" style="shape-rendering:geometricPrecision; text-rendering:geometricPrecision; image-rendering:optimizeQuality; fill-rule:evenodd; clip-rule:evenodd"
viewBox="0 0 3392.43 1456.18"
 xmlns:xlink="http://www.w3.org/1999/xlink"
 xmlns:xodm="http://www.corel.com/coreldraw/odm/2003">
 <defs>
  <style type="text/css">
   <![CDATA[
    .fil0 {fill:#1C1B17}
    .fil2 {fill:#2B2A29;fill-rule:nonzero}
    .fil3 {fill:#0B7EF1;fill-rule:nonzero}
    .fil1 {fill:url(#id0)}
   ]]>
  </style>
  <linearGradient id="id0" gradientUnits="userSpaceOnUse" x1="777.59" y1="-148.19" x2="2594.6" y2="1279.41">
   <stop offset="0" style="stop-opacity:1; stop-color:#030303"/>
   <stop offset="0.458824" style="stop-opacity:1; stop-color:black"/>
   <stop offset="0.541176" style="stop-opacity:1; stop-color:#076BFF"/>
   <stop offset="0.768627" style="stop-opacity:1; stop-color:#0288FF"/>
   <stop offset="1" style="stop-opacity:1; stop-color:#07FBFF"/>
  </linearGradient>
 </defs>
 <g id="Livello_x0020_1">
  <metadata id="CorelCorpID_0Corel-Layer"/>
  <g id="_1711114716128">
   <path class="fil0" d="M2711.52 508.51c-17.07,0.19 -18.55,1.4 -33.31,-2.82 -18.18,-5.2 -8.38,-7.98 -31.64,-4.26 4.66,22.96 10.51,2.64 11.24,37.14 0.51,24.52 -7.75,34.4 11.84,44.16 18.8,-11.04 10.12,-31.67 12.04,-55.94l88.53 -4.55c-11.48,106.74 -77.78,99.08 -78.46,133.62 101.08,-41.5 109.87,-142.62 109.7,-142.97 -21.6,-19.65 -33.14,-7.53 -66.46,-5.69l1.47 -38.34 -34.43 -4.33c9.6,21.55 14.26,15.05 9.49,43.97z"/>
   <path class="fil0" d="M572.77 607.65c-2.78,66.09 66,3.87 137.82,0.24 14.3,24.44 0.66,32.76 28.08,30.53 23.06,-28.39 -33.43,-84.09 -61.44,-86.62l25.38 38.64c-18.53,11.54 -58.03,15.14 -82.86,16.7 9.54,-29.1 96.66,-143.87 16.34,-128.46 8.04,31.56 15.4,4.68 -13.73,78 -28.93,72.81 -17.23,49.85 -49.59,50.98z"/>
   <path class="fil0" d="M839.55 578.56c25.36,-3.12 35.82,-23.01 53.49,-41.33l42.86 2.23c-8.14,93.56 -46.6,85.04 -61.56,109.86 31.97,16.45 79.15,-39.41 87.83,-113.2l57.02 -2.92c5.05,-40.12 -77.05,-5.15 -114.54,-15.04 13.03,-29.34 28.17,-48.5 -23.06,-48.34 11.12,27.32 8.12,30.77 -8.51,58.65 -10.83,18.14 -25.56,32.33 -33.53,50.1z"/>
   <path class="fil0" d="M2529.42 590.57c-10.19,10.19 -0.66,9.23 -23.25,4.8l6.05 -17.28c-0.67,-32.23 7.87,-42.45 11.78,-67.38 -23.65,-24.63 -17.55,-10.03 -51.25,-6.43 -20.05,2.15 -54.95,-4.82 -68.04,1.2 4.98,34.98 54.56,15.2 88.29,13.12l-7.72 74.21c-41.47,15.19 -89.57,1.85 -108.51,-0.56 0.9,45.85 44.55,25.24 80.34,22.1 22.59,-1.98 92.21,5.31 104.06,-5.8 -0.75,-19.4 -14.82,-18.18 -31.76,-17.98z"/>
   <path class="fil0" d="M1135.02 608.51c-8.33,25.97 8.35,40.96 32.99,28.16 15.24,-7.91 36.37,-22.03 49.12,-32.98 24.88,-21.35 63.7,-60.02 70.24,-94.38 -34.22,11.74 -83.4,113.86 -152.36,99.2z"/>
   <path class="fil0" d="M2139.81 620.69c18,75.84 155.85,-67.28 155.58,-110.36 -20.73,7.66 -38.44,58.11 -105.66,95.98 -29.61,16.68 -33.95,5.35 -49.92,14.37z"/>
   <path class="fil1" d="M1836.31 459.31c53.59,-55.11 103.23,-109.47 158.73,-162.92 120.86,-116.41 254.05,-193.98 421.45,-222.3 66.11,-4.24 97.95,-7.72 164.69,4.33 41.04,5.5 63.23,16.07 100.78,25.7 22.7,11.39 45.17,19.23 68.66,31.75 23.26,12.39 41.14,27.46 63.17,38.93 56.59,55.9 115.74,91.95 160.18,189.34 42.55,93.26 56.91,191.55 33.96,292.27 -42.85,188.03 -159.54,296.25 -328.79,371.06 -75.35,20.96 -115.06,34.45 -196.88,33.6 -39.15,-0.41 -158.21,-12.11 -187.26,-32.87 -231.54,-61.86 -367.18,-294.22 -528.12,-418.01 -18.89,9.2 -34.93,30.83 -45.35,48.74 44.09,66.22 368.16,382.47 498.54,415.25 42.92,34.41 195.15,56.36 257.39,56.55 97.77,0.29 175.84,-13.73 261.88,-54.7 160.28,-56.38 305.59,-242.66 337.74,-408.21 37.9,-195.12 -39.31,-408.67 -198.04,-528.02 -70.74,-81.58 -223.51,-124.2 -328.45,-137.39 -209.7,-15.33 -390.23,55.95 -543.82,195.14 -71.28,64.6 -121.12,114.06 -186.99,182.93 -196.06,205 -379.4,485.56 -637.64,615.73 -428.61,216.05 -941.39,-140.67 -804.27,-569.05 86.04,-268.79 397.19,-403.67 661.27,-341.96 124.86,29.17 236.94,102.29 329.13,189.57 45.4,42.99 86.1,85.73 130.14,129.25 36.05,35.61 87.62,106.17 125.82,132.96l40.8 -46.19c-34.34,-61.37 -217.51,-241.55 -277.21,-293.29 -104.47,-90.56 -237.9,-170.86 -376.66,-190.47 -304.07,-42.96 -618.44,112.2 -706.21,418.75 -124.28,434.09 369.57,875.73 893.46,639.43 86.58,-39.05 266.17,-170.18 318.88,-247.07 105.17,-114.09 213.59,-250.44 319,-358.86z"/>
   <path class="fil0" d="M1181.12 534.79c27.44,-32.06 -31.58,-48.3 -54.81,-50.07 8.31,17.35 10.08,14.43 23.76,27.62 17.17,16.56 8.5,20.35 31.04,22.45z"/>
   <path class="fil0" d="M2122.69 524.44c7.18,14.72 11.88,9.68 26.23,21.86 16.35,13.88 7.17,17.36 29.29,15.09 12.8,-37.44 -38.56,-45.99 -55.52,-36.95z"/>
   <path class="fil0" d="M2151.06 482.94c6.99,11.71 14.42,9.88 25.08,21.22 13.69,14.57 5.04,21.18 29.82,12.74 7.1,-28.54 -34.61,-44.01 -54.89,-33.95z"/>
   <path class="fil0" d="M2275.81 501.09c13.44,-23.34 -8.89,-28.24 -29.31,-29.3 6.05,12.92 16.07,26.15 29.31,29.3z"/>
   <path class="fil0" d="M1008.38 499.49c10.22,-20.17 -9.09,-29.3 -27.91,-31.5 2.2,12.21 14.37,28.51 27.91,31.5z"/>
   <path class="fil0" d="M1031.17 484.31c14.16,-21.06 -10.87,-27.58 -28.34,-26.33 6.47,13.3 14.52,25.47 28.34,26.33z"/>
   <path class="fil0" d="M2295.02 485.84c21.47,-17.7 -8.98,-27.32 -25.98,-29.32 5.56,9.6 16.42,22.16 25.98,29.32z"/>
   <path class="fil0" d="M2529.42 590.57l-18.75 3.55 1.55 -16.03 -6.05 17.28c22.59,4.43 13.06,5.39 23.25,-4.8z"/>
   <g>
    <path class="fil2" d="M-0 1336.23l0 118.27 25.74 0 0 -77.26 1.04 0 32.49 76.7 17.51 0 32.46 -76.4 1.07 0 0 76.97 25.71 0 0 -118.27 -32.69 0 -34.57 79.46 -1.47 0 -34.56 -79.46 -32.73 0zm296.32 0l0 77.32c0,12.66 -10.84,20.32 -25.68,20.32 -14.64,0 -25.48,-7.67 -25.48,-20.32l0 -77.32 -26.54 0 0 78.19c0,26.8 21.57,41.76 52.02,41.76 30.34,0 52.02,-14.96 52.02,-41.76l0 -78.19 -26.34 0zm212.29 0l-26.4 0 0 74.39 -1.12 0 -54.15 -74.39 -23.29 0 0 118.27 26.54 0 0 -74.42 0.92 0 54.58 74.42 22.92 0 0 -118.27zm164.3 38.24l26.94 0c-3.42,-23.39 -25.31,-39.84 -53.66,-39.84 -33.16,0 -58.69,22.52 -58.69,60.84 0,37.43 23.9,60.65 59.24,60.65 31.69,0 54.29,-18.89 54.29,-50.03l0 -14.88 -52.51 0 0 18.81 26.94 0c-0.37,14.69 -10.96,23.98 -28.61,23.98 -19.9,0 -32.46,-14.04 -32.46,-38.75 0,-24.61 13.05,-38.51 32.23,-38.51 13.66,0 22.92,6.64 26.28,17.72zm107.22 80.03l84.8 0 0 -20.62 -58.26 0 0 -28.24 53.66 0 0 -20.6 -53.66 0 0 -28.19 58.03 0 0 -20.62 -84.57 0 0 118.27zm269.84 -118.27l-26.4 0 0 74.39 -1.12 0 -54.15 -74.39 -23.29 0 0 118.27 26.54 0 0 -74.42 0.92 0 54.58 74.42 22.92 0 0 -118.27z"/>
    <path class="fil3" d="M1317.28 1336.23l0 82.47c-0.06,11.38 -5.44,17.37 -15.24,17.37 -9.26,0 -15.27,-5.42 -15.44,-14.82l-26.4 0c-0.14,23.6 17.77,34.88 40.49,34.88 25.42,0 42.76,-14.5 42.82,-37.43l0 -82.47 -26.23 0zm193.45 0l-26.54 0 0 118.27 26.54 0 0 -118.27zm133.32 0l45.75 76.45 0 41.82 26.34 0 0 -41.82 45.78 -76.45 -29.7 0 -28.61 50.95 -1.24 0 -28.61 -50.95 -29.7 0zm328.83 0l0 77.32c0,12.66 -10.84,20.32 -25.68,20.32 -14.63,0 -25.48,-7.67 -25.48,-20.32l0 -77.32 -26.54 0 0 78.19c0,26.8 21.57,41.76 52.02,41.76 30.34,0 52.02,-14.96 52.02,-41.76l0 -78.19 -26.34 0z"/>
    <path class="fil2" d="M2327.17 1370.24l25.45 0c-0.37,-21.06 -18.75,-35.61 -46.7,-35.61 -27.52,0 -47.68,14.31 -47.53,35.8 -0.06,17.43 12.97,27.43 34.19,32.22l13.66 3.23c13.66,3.12 21.25,6.8 21.31,14.77 -0.06,8.67 -8.74,14.55 -22.23,14.55 -13.8,0 -23.72,-5.99 -24.59,-17.83l-25.65 0c0.66,25.58 20.1,38.81 50.52,38.81 30.65,0 48.65,-13.8 48.71,-35.45 -0.06,-19.7 -15.79,-30.16 -37.61,-34.77l-11.27 -2.55c-10.9,-2.36 -20.04,-6.18 -19.84,-14.66 0,-7.61 7.16,-13.22 20.16,-13.22 12.68,0 20.44,5.42 21.42,14.72zm138.15 -13.39l38.42 0 0 97.65 26.23 0 0 -97.65 38.42 0 0 -20.62 -103.06 0 0 20.62zm295.78 -20.62l0 77.32c0,12.66 -10.84,20.32 -25.68,20.32 -14.63,0 -25.48,-7.67 -25.48,-20.32l0 -77.32 -26.54 0 0 78.19c0,26.8 21.57,41.76 52.02,41.76 30.34,0 52.02,-14.96 52.02,-41.76l0 -78.19 -26.34 0zm190.62 118.27c38.25,0 61.39,-22.28 61.39,-59.24 0,-36.83 -23.15,-59.03 -61.02,-59.03l-44.86 0 0 118.27 44.49 0zm-17.94 -21.41l0 -75.42 16.91 0c23.52,0 35.97,11.3 35.97,37.59 0,26.4 -12.45,37.83 -36.03,37.83l-16.85 0zm223.49 -96.86l-26.54 0 0 118.27 26.54 0 0 -118.27zm235.16 59.13c0,-38.67 -25.48,-60.73 -58.75,-60.73 -33.44,0 -58.75,22.06 -58.75,60.73 0,38.51 25.31,60.76 58.75,60.76 33.27,0 58.75,-22.06 58.75,-60.76zm-26.89 0c0,25.07 -12.62,38.65 -31.86,38.65 -19.3,0 -31.86,-13.58 -31.86,-38.65 0,-25.07 12.57,-38.62 31.86,-38.62 19.24,0 31.86,13.55 31.86,38.62z"/>
   </g>
  </g>
 </g>
</svg>
