<?xml version="1.0" encoding="UTF-8"?>
<!DOCTYPE svg PUBLIC "-//W3C//DTD SVG 1.1//EN" "http://www.w3.org/Graphics/SVG/1.1/DTD/svg11.dtd">
<!-- Creator: CorelDRAW -->
<svg xmlns="http://www.w3.org/2000/svg" xml:space="preserve" width="166.231mm" height="75.8221mm" version="1.1" style="shape-rendering:geometricPrecision; text-rendering:geometricPrecision; image-rendering:optimizeQuality; fill-rule:evenodd; clip-rule:evenodd"
viewBox="0 0 16543.32 7545.82"
 xmlns:xlink="http://www.w3.org/1999/xlink"
 xmlns:xodm="http://www.corel.com/coreldraw/odm/2003">
 <defs>
  <style type="text/css">
   <![CDATA[
    .fil0 {fill:#1C1B17}
    .fil2 {fill:#2B2A29;fill-rule:nonzero}
    .fil3 {fill:#0B7EF1;fill-rule:nonzero}
    .fil1 {fill:url(#id0)}
   ]]>
  </style>
  <linearGradient id="id0" gradientUnits="userSpaceOnUse" x1="3966.91" y1="-492.06" x2="12954.97" y2="5764.97">
   <stop offset="0" style="stop-opacity:1; stop-color:#030303"/>
   <stop offset="0.458824" style="stop-opacity:1; stop-color:black"/>
   <stop offset="0.541176" style="stop-opacity:1; stop-color:#076BFF"/>
   <stop offset="0.768627" style="stop-opacity:1; stop-color:#0288FF"/>
   <stop offset="1" style="stop-opacity:1; stop-color:#07FBFF"/>
  </linearGradient>
 </defs>
 <g id="Livello_x0020_1">
  <metadata id="CorelCorpID_0Corel-Layer"/>
  <g id="_2632851536080">
   <path class="fil0" d="M13585.36 2635.06c-88.43,0.99 -96.11,7.26 -172.6,-14.6 -94.22,-26.94 -43.42,-41.34 -163.98,-22.05 24.16,118.97 54.46,13.69 58.23,192.47 2.66,127.08 -40.16,178.26 61.35,228.84 97.44,-57.19 52.47,-164.09 62.41,-289.89l458.75 -23.58c-59.49,553.14 -403.06,513.44 -406.6,692.39 523.78,-215.06 569.36,-739.06 568.47,-740.87 -111.95,-101.81 -171.75,-39.02 -344.41,-29.49l7.64 -198.66 -178.44 -22.42c49.75,111.69 73.89,77.99 49.17,227.86z"/>
   <path class="fil0" d="M2502.5 3148.79c-14.42,342.5 342.03,20.03 714.18,1.25 74.1,126.65 3.41,169.78 145.49,158.21 119.51,-147.09 -173.23,-435.74 -318.35,-448.87l131.51 200.21c-96.02,59.79 -300.73,78.44 -429.38,86.51 49.46,-150.81 500.87,-745.53 84.68,-665.69 41.64,163.52 79.79,24.25 -71.16,404.19 -149.9,377.3 -89.29,258.33 -256.96,264.18z"/>
   <path class="fil0" d="M3884.94 2998.04c131.43,-16.16 185.6,-119.24 277.18,-214.15l222.11 11.56c-42.16,484.84 -241.46,440.66 -319.01,569.27 165.65,85.23 410.15,-204.22 455.15,-586.61l295.48 -15.16c26.14,-207.92 -399.24,-26.68 -593.53,-77.93 67.53,-152.04 145.98,-251.35 -119.5,-250.48 57.63,141.57 42.06,159.45 -44.11,303.89 -56.1,94 -132.47,167.52 -173.76,259.6z"/>
   <path class="fil0" d="M12641.71 3060.31c-52.82,52.82 -3.4,47.85 -120.47,24.88l31.36 -89.53c-3.46,-167.03 40.78,-219.99 61.05,-349.17 -122.53,-127.62 -90.95,-51.99 -265.56,-33.31 -103.88,11.13 -284.73,-24.99 -352.59,6.24 25.83,181.28 282.74,78.75 457.51,68l-40.02 384.53c-214.91,78.73 -464.15,9.57 -562.27,-2.93 4.69,237.59 230.85,130.79 416.32,114.51 117.05,-10.28 477.81,27.54 539.22,-30.04 -3.9,-100.55 -76.81,-94.22 -164.56,-93.19z"/>
   <path class="fil0" d="M5416.05 3153.26c-43.15,134.56 43.25,212.25 170.98,145.93 78.95,-41 188.45,-114.17 254.53,-170.88 128.94,-110.66 330.07,-311.03 363.98,-489.08 -177.31,60.83 -432.2,590.01 -789.49,514.03z"/>
   <path class="fil0" d="M10622.75 3216.36c93.26,392.98 807.62,-348.65 806.19,-571.85 -107.41,39.7 -199.19,301.13 -547.51,497.37 -153.43,86.43 -175.94,27.72 -258.68,74.48z"/>
   <path class="fil1" d="M9050.09 2380.09c277.68,-285.57 534.95,-567.24 822.55,-844.25 626.3,-603.22 1316.49,-1005.19 2183.9,-1151.96 342.6,-21.96 507.59,-40 853.4,22.42 212.68,28.5 327.67,83.27 522.21,133.19 117.64,59.05 234.07,99.65 355.81,164.51 120.53,64.21 213.19,142.31 327.32,201.74 293.25,289.67 599.77,476.47 830.05,981.17 220.5,483.28 294.93,992.62 175.98,1514.55 -222.04,974.34 -826.73,1535.17 -1703.78,1922.81 -390.48,108.64 -596.24,178.54 -1020.22,174.11 -202.85,-2.13 -819.85,-62.77 -970.37,-170.33 -1199.81,-320.56 -1902.67,-1524.64 -2736.66,-2166.08 -97.89,47.65 -181.02,159.78 -234.98,252.55 228.49,343.14 1907.8,1981.93 2583.42,2151.8 222.42,178.33 1011.26,292.07 1333.77,293.05 506.63,1.52 911.18,-71.17 1357.03,-283.43 830.55,-292.14 1583.55,-1257.47 1750.17,-2115.31 196.4,-1011.11 -203.68,-2117.69 -1026.24,-2736.16 -366.57,-422.73 -1158.2,-643.62 -1702.02,-711.93 -1086.65,-79.44 -2022.14,289.91 -2818.01,1011.19 -369.36,334.76 -627.62,591.07 -968.95,947.95 -1015.95,1062.32 -1966,2516.12 -3304.23,3190.67 -2221.02,1119.54 -4878.24,-728.96 -4167.67,-2948.76 445.85,-1392.84 2058.2,-2091.79 3426.67,-1772 647.02,151.18 1227.83,530.07 1705.55,982.36 235.29,222.79 446.14,444.27 674.37,669.77 186.8,184.55 454.06,550.15 651.99,688.99l211.44 -239.37c-177.97,-318.03 -1127.11,-1251.67 -1436.46,-1519.82 -541.36,-469.27 -1232.77,-885.4 -1951.81,-987.01 -1575.67,-222.63 -3204.71,581.4 -3659.52,2169.95 -644.03,2249.41 1915.1,4537.97 4629.85,3313.47 448.65,-202.37 1379.3,-881.84 1652.42,-1280.29 544.98,-591.22 1106.81,-1297.77 1653.03,-1859.56z"/>
   <path class="fil0" d="M5654.89 2771.25c142.17,-166.12 -163.63,-250.28 -284,-259.45 43.08,89.93 52.22,74.77 123.14,143.14 88.98,85.82 44.04,105.43 160.86,116.31z"/>
   <path class="fil0" d="M10534.08 2717.6c37.18,76.29 61.56,50.14 135.91,113.28 84.71,71.92 37.16,89.94 151.8,78.18 66.32,-194.02 -199.8,-238.34 -287.71,-191.47z"/>
   <path class="fil0" d="M10681.07 2502.55c36.23,60.66 74.74,51.2 129.94,109.94 70.92,75.49 26.1,109.77 154.5,66 36.79,-147.92 -179.37,-228.07 -284.45,-175.94z"/>
   <path class="fil0" d="M11327.54 2596.62c69.63,-120.94 -46.07,-146.31 -151.86,-151.82 31.36,66.96 83.27,135.53 151.86,151.82z"/>
   <path class="fil0" d="M4759.77 2588.31c52.97,-104.54 -47.11,-151.84 -144.64,-163.22 11.39,63.29 74.48,147.74 144.64,163.22z"/>
   <path class="fil0" d="M4877.91 2509.68c73.37,-109.12 -56.31,-142.93 -146.87,-136.46 33.55,68.91 75.23,131.97 146.87,136.46z"/>
   <path class="fil0" d="M11427.07 2517.58c111.27,-91.73 -46.54,-141.59 -134.64,-151.93 28.8,49.77 85.07,114.85 134.64,151.93z"/>
   <path class="fil0" d="M12641.71 3060.31l-97.16 18.42 8.05 -83.07 -31.36 89.53c117.07,22.97 67.65,27.94 120.47,-24.88z"/>
   <g>
    <path class="fil2" d="M-0 6924.26l0 612.85 133.37 0 0 -400.38 5.36 0 168.38 397.43 90.75 0 168.22 -395.89 5.52 0 0 398.84 133.22 0 0 -612.85 -169.42 0 -179.12 411.75 -7.6 0 -179.1 -411.75 -169.58 0zm1535.51 0l0 400.66c0,65.58 -56.18,105.32 -133.07,105.32 -75.84,0 -132.02,-39.74 -132.02,-105.32l0 -400.66 -137.54 0 0 405.16c0,138.89 111.76,216.41 269.56,216.41 157.21,0 269.55,-77.52 269.55,-216.41l0 -405.16 -136.48 0zm915.49 198.15l139.63 0c-17.73,-121.2 -131.14,-206.44 -278.05,-206.44 -171.82,0 -304.13,116.71 -304.13,315.28 0,193.93 123.82,314.29 306.96,314.29 164.21,0 281.33,-97.89 281.33,-259.25l0 -77.1 -272.09 0 0 97.47 139.62 0c-1.94,76.11 -56.78,124.28 -148.27,124.28 -103.12,0 -168.23,-72.75 -168.23,-200.82 0,-127.52 67.64,-199.56 167.03,-199.56 70.78,0 118.77,34.4 136.19,91.85zm555.61 414.7l439.43 0 0 -106.87 -301.89 0 0 -146.32 278.05 0 0 -106.74 -278.05 0 0 -146.06 300.7 0 0 -106.86 -438.24 0 0 612.85zm1398.28 -612.85l-136.79 0 0 385.49 -5.81 0 -280.59 -385.49 -120.7 0 0 612.85 137.54 0 0 -385.63 4.76 0 282.83 385.63 118.77 0 0 -612.85z"/>
    <path class="fil3" d="M5790.07 6924.26l0 427.34c-0.29,58.99 -28.16,90.02 -78.97,90.02 -47.98,0 -79.13,-28.08 -80.01,-76.81l-136.79 0c-0.75,122.31 92.08,180.74 209.8,180.74 131.72,0 221.58,-75.14 221.88,-193.94l0 -427.34 -135.9 0zm1002.45 0l-137.54 0 0 612.85 137.54 0 0 -612.85zm690.86 0l237.08 396.16 0 216.7 136.48 0 0 -216.7 237.23 -396.16 -153.92 0 -148.27 264.02 -6.41 0 -148.26 -264.02 -153.93 0zm1703.97 0l0 400.66c0,65.58 -56.18,105.32 -133.08,105.32 -75.83,0 -132.01,-39.74 -132.01,-105.32l0 -400.66 -137.54 0 0 405.16c0,138.89 111.76,216.41 269.55,216.41 157.21,0 269.56,-77.52 269.56,-216.41l0 -405.16 -136.48 0z"/>
    <path class="fil2" d="M11023.25 7100.5l131.88 0c-1.94,-109.11 -97.16,-184.53 -241.99,-184.53 -142.6,0 -247.06,74.15 -246.32,185.52 -0.29,90.3 67.21,142.12 177.19,166.97l70.77 16.72c70.79,16.14 110.12,35.24 110.43,76.53 -0.31,44.94 -45.3,75.42 -115.18,75.42 -71.54,0 -122.94,-31.04 -127.41,-92.4l-132.92 0c3.42,132.57 104.16,201.1 261.81,201.1 158.84,0 252.12,-71.49 252.42,-183.69 -0.3,-102.09 -81.81,-156.3 -194.9,-180.17l-58.42 -13.21c-56.47,-12.21 -103.85,-32.02 -102.8,-75.97 0,-39.46 37.09,-68.53 104.45,-68.53 65.71,0 105.94,28.08 111,76.25zm715.86 -69.38l199.07 0 0 505.99 135.9 0 0 -505.99 199.07 0 0 -106.86 -534.04 0 0 106.86zm1532.72 -106.86l0 400.66c0,65.58 -56.18,105.32 -133.08,105.32 -75.83,0 -132.01,-39.74 -132.01,-105.32l0 -400.66 -137.54 0 0 405.16c0,138.89 111.76,216.41 269.55,216.41 157.21,0 269.56,-77.52 269.56,-216.41l0 -405.16 -136.48 0zm987.78 612.85c198.18,0 318.13,-115.43 318.13,-306.99 0,-190.85 -119.94,-305.87 -316.19,-305.87l-232.46 0 0 612.85 230.52 0zm-92.98 -110.95l0 -390.83 87.62 0c121.88,0 186.4,58.56 186.4,194.78 0,136.78 -64.52,196.04 -186.7,196.04l-87.32 0zm1158.11 -501.91l-137.55 0 0 612.85 137.55 0 0 -612.85zm1218.59 306.42c0,-200.39 -132.02,-314.71 -304.42,-314.71 -173.29,0 -304.43,114.32 -304.43,314.71 0,199.56 131.14,314.86 304.43,314.86 172.4,0 304.42,-114.32 304.42,-314.86zm-139.33 0c0,129.9 -65.41,200.26 -165.09,200.26 -99.99,0 -165.1,-70.36 -165.1,-200.26 0,-129.89 65.12,-200.12 165.1,-200.12 99.68,0 165.09,70.22 165.09,200.12z"/>
   </g>
  </g>
 </g>
</svg>
